<?xml version="1.0" standalone="no"?>
<!DOCTYPE svg PUBLIC "-//W3C//DTD SVG 20010904//EN"
 "http://www.w3.org/TR/2001/REC-SVG-20010904/DTD/svg10.dtd">
<svg version="1.0" xmlns="http://www.w3.org/2000/svg"
 width="768.000000pt" height="224.000000pt" viewBox="0 0 768.000000 224.000000"
 preserveAspectRatio="xMidYMid meet">

<g transform="translate(0.000000,224.000000) scale(0.100000,-0.100000)"
fill="#1F4E79" stroke="none">
<path d="M1292 2174 c-21 -14 -22 -23 -22 -130 l0 -114 -112 0 c-62 0 -119 -4
-126 -8 -7 -5 -17 -23 -22 -41 -12 -42 -1 -196 16 -219 10 -14 31 -18 106 -20
149 -4 138 5 138 -116 0 -138 -2 -136 149 -136 93 0 121 3 131 15 7 9 14 59
18 124 l5 109 109 4 c139 4 138 3 138 147 0 58 -5 113 -10 121 -9 15 -30 17
-187 19 l-51 1 -4 116 c-4 146 -2 144 -148 144 -79 0 -111 -4 -128 -16z"/>
<path d="M2156 1674 c-78 -19 -286 -121 -372 -184 -99 -72 -263 -239 -315
-320 -24 -38 -47 -70 -51 -70 -3 0 -20 24 -38 54 -38 68 -231 261 -325 325
-129 89 -353 191 -428 194 -55 3 -67 -21 -67 -133 0 -98 -16 -301 -30 -376
-11 -65 -43 -414 -38 -420 2 -2 37 -10 76 -19 83 -17 172 -59 172 -80 0 -8
-11 -22 -25 -31 -23 -15 -32 -14 -147 15 -68 18 -126 35 -129 39 -4 4 -3 43 2
87 5 44 15 154 24 245 8 91 19 201 25 245 28 211 28 219 14 248 -10 18 -22 27
-39 27 -34 0 -53 -24 -59 -73 -11 -95 -51 -505 -66 -687 -6 -69 -13 -136 -15
-150 -9 -44 6 -52 106 -61 97 -8 149 -21 149 -38 0 -5 -64 -64 -142 -131 -79
-67 -147 -132 -152 -144 -12 -30 -1 -72 20 -80 10 -4 508 -6 1107 -6 1000 0
1092 1 1109 17 24 21 23 54 -2 86 -11 13 -74 60 -141 103 -153 100 -188 129
-172 144 16 17 140 50 188 50 22 0 57 3 78 6 l37 7 0 52 c0 29 -5 77 -10 106
-6 30 -17 126 -25 214 -16 170 -39 390 -53 492 -4 34 -14 68 -21 77 -19 23
-57 20 -75 -6 -16 -23 -16 -39 9 -208 8 -52 17 -132 20 -178 4 -45 8 -93 11
-106 4 -27 22 -180 31 -278 6 -65 5 -67 -18 -72 -102 -20 -178 -41 -225 -62
-63 -28 -92 -30 -120 -10 -19 15 -19 15 1 35 36 35 168 98 238 111 57 12 67
17 67 34 0 26 -26 279 -40 396 -26 209 -40 350 -40 412 0 55 -4 71 -22 91 -23
25 -24 25 -82 11z m-1327 -185 c196 -104 318 -203 413 -333 67 -92 119 -247
89 -265 -6 -4 -37 -8 -69 -9 -31 -2 -70 -5 -87 -8 -53 -11 -158 -56 -232 -101
-39 -24 -80 -43 -91 -43 -10 0 -48 15 -83 33 -35 18 -83 41 -106 50 l-43 17 0
63 c0 35 4 88 10 118 9 52 26 235 36 389 9 131 11 140 41 140 15 0 69 -23 122
-51z m1325 -43 c3 -52 15 -166 26 -253 11 -87 22 -205 26 -263 l6 -105 -68
-30 c-37 -16 -93 -45 -123 -64 -31 -18 -70 -42 -87 -52 l-31 -19 -134 69 c-74
37 -167 81 -208 96 l-74 28 6 64 c9 119 130 314 258 418 125 102 309 205 365
205 l31 0 7 -94z m-690 -696 c101 -34 307 -134 332 -161 19 -21 14 -25 -66
-39 -84 -15 -211 -56 -435 -140 -297 -111 -424 -145 -630 -171 -101 -12 -195
-6 -195 12 0 12 20 31 145 145 395 354 595 438 849 354z"/>
<path d="M6445 1521 c-34 -12 -51 -24 -52 -37 -2 -10 0 -190 5 -399 l7 -380
33 1 c17 1 46 2 62 3 l30 1 0 184 0 183 31 7 c40 8 123 8 143 0 14 -5 16 -32
16 -189 0 -101 3 -185 8 -187 4 -2 35 -2 70 0 l62 4 0 384 c0 369 -1 384 -19
394 -27 14 -94 13 -109 -2 -8 -8 -12 -57 -12 -155 l0 -142 -33 -6 c-18 -4 -61
-5 -97 -3 l-65 4 -5 173 c-3 104 -9 175 -15 177 -5 1 -32 -6 -60 -15z"/>
<path d="M7358 1514 c-30 -15 -50 -33 -53 -47 -2 -12 -4 -188 -2 -392 l2 -370
63 -3 63 -3 -3 410 c-2 256 -7 414 -13 420 -6 6 -27 1 -57 -15z"/>
<path d="M2892 1499 c-23 -17 -42 -32 -42 -35 0 -2 14 -25 30 -51 17 -26 30
-60 30 -75 0 -16 -15 -75 -34 -131 -113 -339 -153 -487 -134 -498 22 -15 64
-10 81 9 16 18 39 77 51 135 l6 27 105 0 104 0 10 -37 c5 -21 13 -54 16 -73
13 -65 21 -71 78 -68 44 3 52 6 55 24 3 21 -21 101 -141 468 -61 189 -127 328
-157 334 -8 1 -34 -11 -58 -29z m126 -376 c28 -90 36 -129 33 -159 -1 -8 -22
-10 -68 -7 -38 3 -70 7 -72 9 -5 5 63 254 70 254 3 0 20 -44 37 -97z"/>
<path d="M3378 1505 c-21 -14 -42 -34 -48 -45 -12 -23 -14 -729 -1 -749 11
-17 54 -8 100 20 l32 20 -5 381 c-4 209 -9 384 -12 389 -9 15 -28 10 -66 -16z"/>
<path d="M4700 1502 l-55 -27 3 -380 c2 -209 7 -384 12 -389 6 -6 14 -5 22 1
7 5 24 10 37 11 13 0 32 9 42 18 17 16 19 30 17 150 -3 121 -1 135 18 161 30
40 84 74 114 71 l25 -3 6 -205 c3 -113 6 -206 7 -207 5 -7 73 -2 96 6 l24 10
-5 193 c-2 106 -9 207 -15 225 -15 52 -60 83 -119 83 -54 0 -93 -16 -123 -49
-11 -12 -23 -21 -29 -21 -6 0 -7 63 -2 169 7 157 3 212 -13 211 -4 -1 -32 -13
-62 -28z"/>
<path d="M7158 1505 c-25 -14 -49 -33 -52 -42 -8 -27 -5 -738 3 -751 5 -9 27
-10 70 -6 l63 7 -7 401 c-4 221 -9 404 -12 409 -6 10 -13 9 -65 -18z"/>
<path d="M3853 1480 c-85 -17 -155 -74 -173 -140 -6 -23 -9 -153 -8 -337 l3
-298 60 0 60 0 3 336 2 335 35 17 c20 9 58 17 84 17 43 0 53 -4 75 -31 19 -23
26 -42 26 -74 0 -39 -5 -47 -42 -80 -24 -20 -56 -39 -71 -42 -16 -3 -31 -12
-34 -19 -6 -17 84 -248 142 -364 24 -47 57 -98 73 -114 26 -24 36 -28 66 -22
20 4 36 11 36 17 0 5 -39 103 -86 217 -47 114 -88 216 -91 227 -3 15 7 27 41
48 102 64 110 183 18 270 -45 43 -121 56 -219 37z"/>
<path d="M6940 1377 c-18 -9 -26 -22 -28 -47 -3 -48 8 -61 60 -66 50 -6 64 5
74 52 10 50 -55 88 -106 61z"/>
<path d="M5185 1207 l-40 -23 0 -239 0 -240 60 1 60 1 -3 181 -4 182 30 30
c25 25 39 30 76 30 56 0 53 12 61 -229 3 -102 8 -188 11 -193 3 -4 30 -8 59
-8 50 0 55 2 61 26 4 14 3 94 0 178 -7 151 -7 153 16 180 26 31 92 50 120 35
16 -9 18 -24 18 -127 0 -64 3 -154 7 -200 l6 -83 51 3 51 3 8 155 c13 259 -3
329 -82 350 -54 14 -114 3 -161 -31 -22 -16 -44 -29 -48 -29 -5 0 -19 11 -32
25 -45 48 -141 53 -201 11 -31 -21 -37 -20 -41 7 -4 30 -34 32 -83 4z"/>
<path d="M4302 1201 c-69 -24 -78 -34 -66 -68 12 -36 35 -39 87 -14 54 26 91
27 117 1 34 -34 28 -41 -98 -115 -140 -82 -175 -140 -138 -228 27 -63 46 -72
164 -72 135 0 203 9 216 27 7 10 9 74 6 189 -6 193 -15 227 -73 270 -44 32
-141 37 -215 10z m158 -304 c0 -59 -4 -97 -12 -105 -7 -7 -33 -12 -60 -12 -55
0 -68 15 -68 77 0 46 10 61 70 102 68 46 70 44 70 -62z"/>
<path d="M5988 1198 c-52 -18 -58 -23 -58 -48 0 -47 38 -53 116 -19 60 25 113
6 114 -41 0 -9 -41 -39 -97 -72 -54 -31 -114 -73 -133 -93 -32 -33 -35 -41
-35 -95 0 -54 3 -63 33 -92 l32 -33 118 0 c133 0 182 4 200 18 9 7 12 56 12
186 0 151 -3 182 -19 218 -40 87 -155 116 -283 71z m172 -307 c0 -111 0 -111
-75 -111 -54 0 -67 19 -63 88 3 44 6 49 57 84 30 21 60 38 68 38 10 0 13 -23
13 -99z"/>
<path d="M6965 1168 c-22 -6 -43 -16 -47 -22 -9 -13 -10 -346 -2 -398 7 -43
20 -49 84 -40 l45 7 -2 150 c-3 208 -12 315 -26 314 -7 -1 -30 -6 -52 -11z"/>
</g>
</svg>
