<?xml version="1.0" standalone="no"?>
<!DOCTYPE svg PUBLIC "-//W3C//DTD SVG 20010904//EN"
 "http://www.w3.org/TR/2001/REC-SVG-20010904/DTD/svg10.dtd">
<svg version="1.0" xmlns="http://www.w3.org/2000/svg"
 width="266.000000pt" height="224.000000pt" viewBox="0 0 266.000000 224.000000"
 preserveAspectRatio="xMidYMid meet">

<g transform="translate(0.000000,224.000000) scale(0.100000,-0.100000)"
fill="#1f4e79" stroke="none">
<path d="M1232 2168 c-8 -8 -12 -48 -12 -114 0 -56 -3 -109 -6 -118 -5 -13
-25 -16 -118 -16 -74 0 -116 -4 -124 -12 -17 -17 -17 -244 1 -255 6 -4 64 -10
127 -13 l115 -5 3 -109 c1 -61 8 -116 14 -123 14 -18 239 -18 256 -1 8 8 12
50 12 125 l0 113 108 0 c152 0 152 0 152 144 0 82 -4 117 -13 124 -7 6 -64 13
-128 14 l-114 3 -3 114 c-1 64 -8 121 -14 128 -14 18 -239 18 -256 1z"/>
<path d="M527 1673 c-2 -4 -8 -60 -11 -123 -4 -63 -21 -248 -38 -410 -17 -162
-31 -320 -32 -350 l-1 -54 53 -8 c58 -9 202 -65 202 -78 0 -5 -15 -20 -32 -34
l-33 -24 -72 24 c-40 13 -99 27 -133 31 -71 7 -67 -11 -45 203 66 651 65 638
41 655 -20 15 -52 9 -60 -11 -3 -7 -17 -131 -31 -276 -14 -145 -34 -350 -45
-457 -11 -106 -18 -197 -15 -201 2 -4 48 -10 102 -13 105 -7 155 -17 160 -33
2 -5 -67 -67 -152 -138 -91 -75 -158 -138 -161 -152 -8 -29 11 -63 42 -74 35
-14 2134 -13 2168 0 35 13 53 52 38 85 -7 15 -78 69 -182 137 -151 100 -168
114 -153 126 32 23 117 43 211 49 59 4 96 11 98 18 3 7 -9 133 -25 281 -16
148 -37 341 -46 429 -24 233 -32 253 -82 234 -30 -11 -31 -7 17 -434 23 -198
42 -373 43 -389 2 -29 1 -29 -77 -43 -44 -7 -118 -29 -165 -48 -47 -19 -90
-35 -96 -35 -5 0 -25 9 -44 21 l-35 21 55 34 c66 41 198 94 236 94 57 0 57 2
34 191 -45 375 -61 518 -67 622 -4 59 -13 115 -19 124 -12 16 -17 16 -76 -1
-88 -24 -273 -114 -366 -177 -103 -71 -278 -249 -327 -333 -21 -36 -42 -66
-47 -66 -4 0 -18 21 -31 47 -30 63 -216 254 -315 325 -151 109 -466 245 -486
211z m1566 -130 c3 -5 10 -69 16 -143 7 -74 16 -169 21 -210 30 -233 39 -355
27 -366 -7 -6 -43 -23 -81 -39 -38 -16 -102 -50 -143 -77 -40 -26 -78 -48 -84
-48 -6 0 -50 21 -97 47 -47 25 -138 68 -201 94 l-116 47 0 63 c0 74 36 161
109 263 100 141 279 276 465 353 60 24 77 27 84 16z m-1333 -49 c139 -67 254
-146 339 -233 110 -112 191 -259 191 -346 l0 -32 -87 -5 c-104 -7 -186 -35
-317 -109 l-90 -51 -70 36 c-39 19 -93 44 -121 55 l-50 19 1 54 c1 29 9 123
18 208 8 85 21 221 27 303 l12 147 27 0 c14 0 69 -20 120 -46z m665 -749 c84
-29 278 -122 328 -157 l30 -21 -109 -22 c-119 -24 -178 -43 -449 -145 -208
-78 -321 -112 -461 -140 -111 -23 -374 -39 -374 -23 0 9 167 162 305 279 154
131 303 219 420 248 88 23 211 15 310 -19z"/>
</g>
</svg>
